<?xml version="1.0" encoding="iso-8859-1"?>
<!-- Uploaded to: SVG Repo, www.svgrepo.com, Generator: SVG Repo Mixer Tools -->
<svg height="800px" width="800px" version="1.1" id="Layer_1" xmlns="http://www.w3.org/2000/svg" xmlns:xlink="http://www.w3.org/1999/xlink" 
	 viewBox="0 0 503.607 503.607" xml:space="preserve">
<g transform="translate(1 1)">
	<path style="fill:#FD9808;" d="M175.262,133.295c0-9.233,7.554-16.787,16.787-16.787h285.377c9.233,0,16.787,7.554,16.787,16.787
		v318.951c0,9.233-7.554,16.787-16.787,16.787H192.049c-9.233,0-16.787-7.554-16.787-16.787V133.295z"/>
	<path style="fill:#FFFFFF;" d="M7.393,133.295c0-9.233,7.554-16.787,16.787-16.787h285.377c9.233,0,16.787,7.554,16.787,16.787
		v318.951c0,9.233-7.554,16.787-16.787,16.787H24.18c-9.233,0-16.787-7.554-16.787-16.787V133.295z"/>
	<path style="fill:#FFDD09;" d="M32.574,133.295c0-9.233,6.715-16.787,15.108-16.787h406.243c8.393,0,15.108,7.554,15.108,16.787
		v318.951c0,9.233-6.715,16.787-15.108,16.787H47.682c-8.393,0-15.108-7.554-15.108-16.787
		C32.574,452.246,32.574,133.295,32.574,133.295z"/>
	<polygon style="fill:#33A9F8;" points="200.443,259.197 301.164,259.197 301.164,208.836 200.443,208.836 	"/>
	<g>
		<polygon style="fill:#54C9FD;" points="99.721,183.656 166.869,183.656 166.869,116.508 99.721,116.508 		"/>
		<polygon style="fill:#54C9FD;" points="334.738,183.656 401.885,183.656 401.885,116.508 334.738,116.508 		"/>
		<polygon style="fill:#54C9FD;" points="116.508,469.033 150.082,469.033 150.082,183.656 116.508,183.656 		"/>
		<polygon style="fill:#54C9FD;" points="351.525,469.033 385.098,469.033 385.098,183.656 351.525,183.656 		"/>
		<polygon style="fill:#54C9FD;" points="200.443,259.197 275.984,259.197 275.984,208.836 200.443,208.836 		"/>
		<path style="fill:#54C9FD;" d="M66.148,116.508H24.18c-9.233,0-16.787,7.554-16.787,16.787v49.521
			C39.289,176.941,64.469,150.082,66.148,116.508"/>
		<path style="fill:#54C9FD;" d="M7.393,410.279v41.967c0,9.233,7.554,16.787,16.787,16.787h50.361
			C68.666,437.138,40.967,412.797,7.393,410.279"/>
		<path style="fill:#54C9FD;" d="M435.459,116.508h41.967c9.233,0,16.787,7.554,16.787,16.787v50.361
			C462.318,177.78,437.138,150.082,435.459,116.508"/>
		<path style="fill:#54C9FD;" d="M494.213,410.279v41.967c0,9.233-7.554,16.787-16.787,16.787h-50.361
			C432.941,437.138,461.479,411.957,494.213,410.279"/>
	</g>
	<path d="M351.525,124.902H150.082c-5.036,0-8.393-3.357-8.393-8.393V49.361c0-14.269,10.911-25.18,25.18-25.18h167.869
		c14.269,0,25.18,10.911,25.18,25.18v67.148C359.918,121.544,356.561,124.902,351.525,124.902z M158.475,108.115h184.656V49.361
		c0-5.036-3.357-8.393-8.393-8.393H166.869c-5.036,0-8.393,3.357-8.393,8.393V108.115z"/>
	<path d="M166.869,192.049H99.721c-5.036,0-8.393-3.357-8.393-8.393v-67.148c0-5.036,3.357-8.393,8.393-8.393h67.148
		c5.036,0,8.393,3.357,8.393,8.393v67.148C175.262,188.692,171.905,192.049,166.869,192.049z M108.115,175.262h50.361v-50.361
		h-50.361V175.262z"/>
	<path d="M401.885,192.049h-67.148c-5.036,0-8.393-3.357-8.393-8.393v-67.148c0-5.036,3.357-8.393,8.393-8.393h67.148
		c5.036,0,8.393,3.357,8.393,8.393v67.148C410.279,188.692,406.921,192.049,401.885,192.049z M343.131,175.262h50.361v-50.361
		h-50.361V175.262z"/>
	<path d="M150.082,477.426h-33.574c-5.036,0-8.393-3.357-8.393-8.393V183.656c0-5.036,3.357-8.393,8.393-8.393h33.574
		c5.036,0,8.393,3.357,8.393,8.393v285.377C158.475,474.069,155.118,477.426,150.082,477.426z M124.902,460.639h16.787v-268.59
		h-16.787V460.639z"/>
	<path d="M385.098,477.426h-33.574c-5.036,0-8.393-3.357-8.393-8.393V183.656c0-5.036,3.357-8.393,8.393-8.393h33.574
		c5.036,0,8.393,3.357,8.393,8.393v285.377C393.492,474.069,390.134,477.426,385.098,477.426z M359.918,460.639h16.787v-268.59
		h-16.787V460.639z"/>
	<path d="M301.164,267.59H200.443c-5.036,0-8.393-3.357-8.393-8.393v-50.361c0-5.036,3.357-8.393,8.393-8.393h100.721
		c5.036,0,8.393,3.357,8.393,8.393v50.361C309.557,264.233,306.2,267.59,301.164,267.59z M208.836,250.803h83.934v-33.574h-83.934
		V250.803z"/>
	<path d="M7.393,191.21c-1.679,0-4.197-0.839-5.036-1.679C-0.161,187.013-1,185.334-1,182.816v-49.521
		c0-14.269,10.911-25.18,25.18-25.18h41.967c2.518,0,4.197,0.839,5.875,2.518c1.679,1.679,2.518,4.197,2.518,6.715
		c-2.518,36.931-29.377,67.148-65.469,73.862C8.233,191.21,8.233,191.21,7.393,191.21z M24.18,124.902
		c-5.036,0-8.393,3.357-8.393,8.393v38.61c20.984-7.554,36.092-25.18,40.289-47.003H24.18z"/>
	<path d="M74.541,477.426H24.18C9.911,477.426-1,466.515-1,452.246v-41.967c0-2.518,0.839-4.197,2.518-5.875
		c1.679-1.679,4.197-2.518,5.875-2.518c36.931,2.518,68.826,29.377,74.702,65.469c0.839,2.518,0,5.036-1.679,6.715
		C79.577,476.587,77.059,477.426,74.541,477.426z M15.787,420.351v31.895c0,5.036,3.357,8.393,8.393,8.393H63.63
		C56.075,440.495,37.61,424.548,15.787,420.351z"/>
	<path d="M494.213,192.049c-0.839,0-0.839,0-1.679,0c-36.092-6.715-63.79-37.77-65.469-74.702c0-2.518,0.839-4.197,2.518-5.875
		c1.679-2.518,3.357-3.357,5.875-3.357h41.967c14.269,0,25.18,10.911,25.18,25.18v50.361c0,2.518-0.839,5.036-3.357,6.715
		C498.41,191.21,495.892,192.049,494.213,192.049z M444.692,124.902c4.197,21.823,20.144,40.289,41.128,47.843v-39.449
		c0-5.036-3.357-8.393-8.393-8.393H444.692z"/>
	<path d="M477.426,477.426h-50.361c-2.518,0-5.036-0.839-6.715-3.357c-1.679-1.679-2.518-4.197-1.679-6.715
		c6.715-36.092,37.77-63.79,74.702-65.469c2.518,0,4.197,0.839,5.875,2.518c1.679,1.679,3.357,3.357,3.357,5.875v41.967
		C502.607,465.675,491.695,477.426,477.426,477.426z M437.977,460.639h39.449c4.197,0,8.393-4.197,8.393-8.393v-31.895
		C463.997,424.548,445.531,439.656,437.977,460.639z"/>
	<path d="M477.426,477.426H24.18C9.911,477.426-1,466.515-1,452.246V133.295c0-14.269,10.911-25.18,25.18-25.18h453.246
		c14.269,0,25.18,10.911,25.18,25.18v318.951C502.607,466.515,491.695,477.426,477.426,477.426z M24.18,124.902
		c-5.036,0-8.393,3.357-8.393,8.393v318.951c0,5.036,3.357,8.393,8.393,8.393h453.246c5.036,0,8.393-3.357,8.393-8.393V133.295
		c0-5.036-3.357-8.393-8.393-8.393H24.18z"/>
</g>
</svg>